<svg width="45" height="45" viewBox="0 0 45 45" fill="none" xmlns="http://www.w3.org/2000/svg">
<g filter="url(#filter0_d_28_229)">
<path d="M31.1636 14.3289C29.5701 13.5977 27.8614 13.0591 26.0749 12.7506C26.0424 12.7446 26.0099 12.7595 25.9931 12.7892C25.7733 13.1801 25.5299 13.69 25.3595 14.0908C23.4379 13.8031 21.5262 13.8031 19.6441 14.0908C19.4736 13.6811 19.2213 13.1801 19.0006 12.7892C18.9838 12.7605 18.9513 12.7456 18.9188 12.7506C17.1332 13.0581 15.4245 13.5968 13.8301 14.3289C13.8163 14.3348 13.8045 14.3447 13.7967 14.3576C10.5556 19.1997 9.66776 23.9227 10.1033 28.5872C10.1053 28.61 10.1181 28.6318 10.1358 28.6457C12.2742 30.216 14.3455 31.1694 16.3784 31.8013C16.411 31.8112 16.4454 31.7993 16.4661 31.7725C16.947 31.1158 17.3757 30.4234 17.7432 29.6952C17.7649 29.6526 17.7442 29.602 17.6999 29.5851C17.0199 29.3272 16.3725 29.0127 15.7497 28.6556C15.7005 28.6269 15.6965 28.5564 15.7418 28.5227C15.8729 28.4245 16.004 28.3223 16.1291 28.2191C16.1518 28.2003 16.1833 28.1963 16.2099 28.2082C20.3013 30.0762 24.7308 30.0762 28.7739 28.2082C28.8005 28.1953 28.8321 28.1993 28.8557 28.2181C28.9809 28.3213 29.1119 28.4245 29.244 28.5227C29.2893 28.5564 29.2863 28.6269 29.2371 28.6556C28.6143 29.0197 27.9669 29.3272 27.2859 29.5841C27.2416 29.601 27.2219 29.6526 27.2436 29.6952C27.619 30.4224 28.0477 31.1148 28.5197 31.7715C28.5394 31.7993 28.5749 31.8112 28.6074 31.8013C30.6501 31.1694 32.7215 30.216 34.8598 28.6457C34.8786 28.6318 34.8904 28.611 34.8924 28.5882C35.4136 23.1955 34.0193 18.5112 31.1961 14.3586C31.1892 14.3447 31.1774 14.3348 31.1636 14.3289ZM18.3542 25.747C17.1224 25.747 16.1074 24.6161 16.1074 23.2273C16.1074 21.8384 17.1027 20.7076 18.3542 20.7076C19.6155 20.7076 20.6206 21.8484 20.6009 23.2273C20.6009 24.6161 19.6056 25.747 18.3542 25.747ZM26.6612 25.747C25.4294 25.747 24.4145 24.6161 24.4145 23.2273C24.4145 21.8384 25.4097 20.7076 26.6612 20.7076C27.9225 20.7076 28.9276 21.8484 28.908 23.2273C28.908 24.6161 27.9225 25.747 26.6612 25.747Z" fill="white"/>
</g>
<defs>
<filter id="filter0_d_28_229" x="-4" y="0" width="53" height="53" filterUnits="userSpaceOnUse" color-interpolation-filters="sRGB">
<feFlood flood-opacity="0" result="BackgroundImageFix"/>
<feColorMatrix in="SourceAlpha" type="matrix" values="0 0 0 0 0 0 0 0 0 0 0 0 0 0 0 0 0 0 127 0" result="hardAlpha"/>
<feOffset dy="4"/>
<feGaussianBlur stdDeviation="2"/>
<feComposite in2="hardAlpha" operator="out"/>
<feColorMatrix type="matrix" values="0 0 0 0 0 0 0 0 0 0 0 0 0 0 0 0 0 0 0.25 0"/>
<feBlend mode="normal" in2="BackgroundImageFix" result="effect1_dropShadow_28_229"/>
<feBlend mode="normal" in="SourceGraphic" in2="effect1_dropShadow_28_229" result="shape"/>
</filter>
</defs>
</svg>
