<svg width="24" height="24" viewBox="0 0 24 24" fill="none" xmlns="http://www.w3.org/2000/svg">
<path d="M8.6854 3.99988L11.2924 1.39288C11.4799 1.20541 11.7342 1.1001 11.9994 1.1001C12.2646 1.1001 12.5189 1.20541 12.7064 1.39288L15.3134 3.99988H18.9994C19.2646 3.99988 19.519 4.10524 19.7065 4.29278C19.894 4.48031 19.9994 4.73467 19.9994 4.99988V8.68588L22.6064 11.2929C22.7939 11.4804 22.8992 11.7347 22.8992 11.9999C22.8992 12.265 22.7939 12.5194 22.6064 12.7069L19.9994 15.3139V18.9999C19.9994 19.2651 19.894 19.5195 19.7065 19.707C19.519 19.8945 19.2646 19.9999 18.9994 19.9999H15.3134L12.7064 22.6069C12.5189 22.7944 12.2646 22.8997 11.9994 22.8997C11.7342 22.8997 11.4799 22.7944 11.2924 22.6069L8.6854 19.9999H4.9994C4.73418 19.9999 4.47983 19.8945 4.29229 19.707C4.10475 19.5195 3.9994 19.2651 3.9994 18.9999V15.3139L1.3924 12.7069C1.20492 12.5194 1.09961 12.265 1.09961 11.9999C1.09961 11.7347 1.20492 11.4804 1.3924 11.2929L3.9994 8.68588V4.99988C3.9994 4.73467 4.10475 4.48031 4.29229 4.29278C4.47983 4.10524 4.73418 3.99988 4.9994 3.99988H8.6854ZM5.9994 5.99988V9.51488L3.5144 11.9999L5.9994 14.4849V17.9999H9.5144L11.9994 20.4849L14.4844 17.9999H17.9994V14.4849L20.4844 11.9999L17.9994 9.51488V5.99988H14.4844L11.9994 3.51488L9.5144 5.99988H5.9994ZM11.9994 15.9999C10.9385 15.9999 9.92111 15.5785 9.17097 14.8283C8.42082 14.0782 7.9994 13.0607 7.9994 11.9999C7.9994 10.939 8.42082 9.9216 9.17097 9.17146C9.92111 8.42131 10.9385 7.99988 11.9994 7.99988C13.0603 7.99988 14.0777 8.42131 14.8278 9.17146C15.578 9.9216 15.9994 10.939 15.9994 11.9999C15.9994 13.0607 15.578 14.0782 14.8278 14.8283C14.0777 15.5785 13.0603 15.9999 11.9994 15.9999ZM11.9994 13.9999C12.5298 13.9999 13.0385 13.7892 13.4136 13.4141C13.7887 13.039 13.9994 12.5303 13.9994 11.9999C13.9994 11.4695 13.7887 10.9607 13.4136 10.5857C13.0385 10.2106 12.5298 9.99988 11.9994 9.99988C11.469 9.99988 10.9603 10.2106 10.5852 10.5857C10.2101 10.9607 9.9994 11.4695 9.9994 11.9999C9.9994 12.5303 10.2101 13.039 10.5852 13.4141C10.9603 13.7892 11.469 13.9999 11.9994 13.9999Z" fill="white"/>
</svg>
