<svg width="28" height="28" viewBox="0 0 28 28" fill="none" xmlns="http://www.w3.org/2000/svg">
<path d="M12.2502 18.6665C12.2502 17.7001 13.0337 16.9165 14.0002 16.9165C14.9667 16.9165 15.7502 17.7001 15.7502 18.6665C15.7502 19.633 14.9667 20.4165 14.0002 20.4165C13.0337 20.4165 12.2502 19.633 12.2502 18.6665Z" fill="white"/>
<path fill-rule="evenodd" clip-rule="evenodd" d="M11.4458 4.67236C11.7169 4.56443 11.9997 4.48865 12.2884 4.44658C14.0072 4.19614 15.6717 5.16427 16.3038 6.78214L16.3913 7.00616C16.4997 7.28375 16.5771 7.5725 16.622 7.86713L16.8747 9.52649L18.6047 9.263L18.352 7.60363C18.2877 7.18125 18.1768 6.76729 18.0213 6.36933L17.9338 6.14531C17.0054 3.769 14.5607 2.34702 12.0361 2.71487C11.612 2.77666 11.1966 2.88796 10.7985 3.04649C8.4282 3.9902 7.02201 6.44403 7.40614 8.96617L7.44236 9.20395C7.50669 9.62633 7.61761 10.0403 7.77309 10.4382L8.53626 12.3916L8.0912 12.4272C6.82802 12.528 5.79657 13.4776 5.5918 14.7281C5.16471 17.3364 5.16471 19.9967 5.5918 22.605C5.79657 23.8555 6.82802 24.8051 8.0912 24.9059L9.83669 25.0453C12.608 25.2665 15.3925 25.2665 18.1638 25.0453L19.9092 24.9059C21.1724 24.8051 22.2039 23.8555 22.4087 22.605C22.8357 19.9967 22.8357 17.3364 22.4087 14.7281C22.2039 13.4776 21.1724 12.528 19.9092 12.4272L18.1638 12.2878C15.5666 12.0805 12.9579 12.0675 10.3592 12.2487L9.4031 9.80142C9.29465 9.52383 9.21728 9.23508 9.17241 8.94046L9.13619 8.70268C8.87466 6.98552 9.83204 5.31487 11.4458 4.67236ZM18.0245 14.0323C15.3459 13.8184 12.6545 13.8184 9.97595 14.0323L8.23047 14.1716C7.76972 14.2084 7.39349 14.5547 7.3188 15.0109C6.92238 17.4319 6.92238 19.9012 7.3188 22.3222C7.39349 22.7783 7.76972 23.1247 8.23047 23.1615L9.97595 23.3008C12.6545 23.5147 15.3459 23.5147 18.0245 23.3008L19.77 23.1615C20.2307 23.1247 20.607 22.7784 20.6816 22.3222C21.0781 19.9012 21.0781 17.4319 20.6816 15.0109C20.607 14.5547 20.2307 14.2084 19.77 14.1716L18.0245 14.0323Z" fill="white"/>
</svg>
