<svg width="28" height="28" viewBox="0 0 28 28" fill="none" xmlns="http://www.w3.org/2000/svg">
<path d="M8.78604 7.61872C9.12775 7.27701 9.12775 6.72299 8.78604 6.38128C8.44433 6.03957 7.89031 6.03957 7.5486 6.38128L5.21527 8.71461C4.87356 9.05632 4.87356 9.61034 5.21527 9.95205L7.5486 12.2854C7.89031 12.6271 8.44433 12.6271 8.78604 12.2854C9.12775 11.9437 9.12775 11.3897 8.78604 11.0479L7.94642 10.2083H19.834C20.3172 10.2083 20.709 9.81658 20.709 9.33333C20.709 8.85008 20.3172 8.45833 19.834 8.45833H7.94642L8.78604 7.61872Z" fill="white"/>
<path d="M19.2153 15.7146C18.8736 16.0563 18.8736 16.6103 19.2153 16.9521L20.0549 17.7917H8.16732C7.68407 17.7917 7.29232 18.1834 7.29232 18.6667C7.29232 19.1499 7.68407 19.5417 8.16732 19.5417H20.0549L19.2153 20.3813C18.8736 20.723 18.8736 21.277 19.2153 21.6187C19.557 21.9604 20.111 21.9604 20.4527 21.6187L22.786 19.2854C23.1277 18.9437 23.1277 18.3897 22.786 18.0479L20.4527 15.7146C20.111 15.3729 19.557 15.3729 19.2153 15.7146Z" fill="white"/>
</svg>
