<svg width="28" height="28" viewBox="0 0 28 28" fill="none" xmlns="http://www.w3.org/2000/svg">
<path d="M13.9993 21.2916C13.5161 21.2916 13.1243 21.6833 13.1243 22.1666C13.1243 22.6498 13.5161 23.0416 13.9993 23.0416H20.9994C22.1269 23.0416 23.041 22.1275 23.041 20.9999V6.99992C23.041 5.87234 22.1269 4.95825 20.9993 4.95825H13.9993C13.5161 4.95825 13.1243 5.35 13.1243 5.83325C13.1243 6.3165 13.5161 6.70825 13.9993 6.70825L20.9993 6.70825C21.1604 6.70825 21.291 6.83884 21.291 6.99992L21.291 20.9999C21.291 21.161 21.1604 21.2916 20.9994 21.2916H13.9993Z" fill="white"/>
<path fill-rule="evenodd" clip-rule="evenodd" d="M16.9196 16.7593C17.725 16.7593 18.3779 16.1064 18.3779 15.301V12.6871C18.3779 11.8817 17.725 11.2287 16.9196 11.2287L11.5382 11.2287C11.5306 11.1431 11.5227 11.0574 11.5143 10.9718L11.4513 10.3233C11.3551 9.33383 10.3044 8.74126 9.40795 9.1709C7.50135 10.0846 5.77534 11.335 4.31293 12.8619L4.1972 12.9827C3.65562 13.5482 3.65562 14.4399 4.1972 15.0053L4.31293 15.1262C5.77534 16.6531 7.50135 17.9034 9.40795 18.8172C10.3044 19.2468 11.3551 18.6542 11.4513 17.6648L11.5143 17.0162C11.5227 16.9306 11.5306 16.845 11.5382 16.7593H16.9196ZM10.727 15.0093C10.4162 15.0093 10.1415 15.1718 9.98611 15.4186C9.91045 15.5387 9.86309 15.6788 9.85367 15.8299C9.83251 16.1692 9.80547 16.5083 9.77255 16.847L9.75426 17.0352C8.54553 16.4123 7.42304 15.6366 6.41412 14.7278C6.15237 14.4921 5.89827 14.2473 5.65229 13.994C6.84642 12.7643 8.23195 11.7374 9.75426 10.9529L9.77255 11.1411C9.80547 11.4798 9.83251 11.8188 9.85367 12.1582C9.88244 12.6194 10.2649 12.9787 10.727 12.9787H16.6279V15.0093H10.727Z" fill="white"/>
</svg>
