<svg width="28" height="28" viewBox="0 0 28 28" fill="none" xmlns="http://www.w3.org/2000/svg">
<path d="M8.16732 11.6667C6.87865 11.6667 5.83398 12.7114 5.83398 14.0001C5.83398 15.2887 6.87865 16.3334 8.16732 16.3334C9.45598 16.3334 10.5007 15.2887 10.5007 14.0001C10.5007 12.7114 9.45598 11.6667 8.16732 11.6667Z" fill="white"/>
<path fill-rule="evenodd" clip-rule="evenodd" d="M8.16732 7.29175C4.46241 7.29175 1.45898 10.2952 1.45898 14.0001C1.45898 17.705 4.46241 20.7084 8.16732 20.7084C10.7113 20.7084 12.9229 19.2924 14.0599 17.2084H17.7923V19.8334C17.7923 20.3167 18.1841 20.7084 18.6673 20.7084H22.7507C23.2339 20.7084 23.6257 20.3167 23.6257 19.8334V17.2084H25.6673C26.1506 17.2084 26.5423 16.8167 26.5423 16.3334V12.8334C26.5423 11.7058 25.6282 10.7917 24.5007 10.7917H14.0599C12.9229 8.70774 10.7113 7.29175 8.16732 7.29175ZM3.20898 14.0001C3.20898 11.2617 5.42891 9.04175 8.16732 9.04175C10.1992 9.04175 11.9475 10.2641 12.7135 12.0171C12.8527 12.3358 13.1675 12.5417 13.5153 12.5417H24.5007C24.6617 12.5417 24.7923 12.6723 24.7923 12.8334V15.4584H22.7507C22.2674 15.4584 21.8757 15.8502 21.8757 16.3334V18.9584H19.5423V16.3334C19.5423 15.8502 19.1506 15.4584 18.6673 15.4584H13.5153C13.1675 15.4584 12.8527 15.6644 12.7135 15.9831C11.9475 17.7361 10.1992 18.9584 8.16732 18.9584C5.42891 18.9584 3.20898 16.7385 3.20898 14.0001Z" fill="white"/>
</svg>
