<svg width="35" height="36" viewBox="0 0 35 36" fill="none" xmlns="http://www.w3.org/2000/svg">
<g filter="url(#filter0_d_50_811)">
<path d="M17.4999 7.08325C20.3301 7.08325 20.6833 7.09367 21.7937 7.14575C22.903 7.19784 23.6583 7.37179 24.3228 7.63013C25.0103 7.89471 25.5895 8.25304 26.1687 8.83117C26.6984 9.35189 27.1082 9.98178 27.3697 10.677C27.627 11.3405 27.802 12.0968 27.8541 13.2062C27.903 14.3166 27.9166 14.6697 27.9166 17.4999C27.9166 20.3301 27.9062 20.6833 27.8541 21.7937C27.802 22.903 27.627 23.6583 27.3697 24.3228C27.109 25.0184 26.699 25.6485 26.1687 26.1687C25.6478 26.6982 25.0179 27.108 24.3228 27.3697C23.6593 27.627 22.903 27.802 21.7937 27.8541C20.6833 27.903 20.3301 27.9166 17.4999 27.9166C14.6697 27.9166 14.3166 27.9062 13.2062 27.8541C12.0968 27.802 11.3416 27.627 10.677 27.3697C9.98151 27.1087 9.35151 26.6988 8.83117 26.1687C8.30138 25.648 7.89151 25.0181 7.63013 24.3228C7.37179 23.6593 7.19784 22.903 7.14575 21.7937C7.09679 20.6833 7.08325 20.3301 7.08325 17.4999C7.08325 14.6697 7.09367 14.3166 7.14575 13.2062C7.19784 12.0958 7.37179 11.3416 7.63013 10.677C7.89079 9.98136 8.30076 9.35129 8.83117 8.83117C9.35166 8.3012 9.98162 7.8913 10.677 7.63013C11.3416 7.37179 12.0958 7.19784 13.2062 7.14575C14.3166 7.09679 14.6697 7.08325 17.4999 7.08325ZM17.4999 12.2916C16.1186 12.2916 14.7938 12.8403 13.8171 13.8171C12.8403 14.7938 12.2916 16.1186 12.2916 17.4999C12.2916 18.8813 12.8403 20.206 13.8171 21.1828C14.7938 22.1595 16.1186 22.7083 17.4999 22.7083C18.8813 22.7083 20.206 22.1595 21.1828 21.1828C22.1595 20.206 22.7083 18.8813 22.7083 17.4999C22.7083 16.1186 22.1595 14.7938 21.1828 13.8171C20.206 12.8403 18.8813 12.2916 17.4999 12.2916V12.2916ZM24.2708 12.0312C24.2708 11.6858 24.1336 11.3546 23.8894 11.1105C23.6452 10.8663 23.314 10.7291 22.9687 10.7291C22.6233 10.7291 22.2921 10.8663 22.048 11.1105C21.8038 11.3546 21.6666 11.6858 21.6666 12.0312C21.6666 12.3765 21.8038 12.7077 22.048 12.9519C22.2921 13.1961 22.6233 13.3333 22.9687 13.3333C23.314 13.3333 23.6452 13.1961 23.8894 12.9519C24.1336 12.7077 24.2708 12.3765 24.2708 12.0312ZM17.4999 14.3749C18.3287 14.3749 19.1236 14.7042 19.7096 15.2902C20.2957 15.8763 20.6249 16.6711 20.6249 17.4999C20.6249 18.3287 20.2957 19.1236 19.7096 19.7096C19.1236 20.2957 18.3287 20.6249 17.4999 20.6249C16.6711 20.6249 15.8763 20.2957 15.2902 19.7096C14.7042 19.1236 14.3749 18.3287 14.3749 17.4999C14.3749 16.6711 14.7042 15.8763 15.2902 15.2902C15.8763 14.7042 16.6711 14.3749 17.4999 14.3749V14.3749Z" fill="white"/>
</g>
<defs>
<filter id="filter0_d_50_811" x="3.08325" y="7.08325" width="28.8333" height="28.8333" filterUnits="userSpaceOnUse" color-interpolation-filters="sRGB">
<feFlood flood-opacity="0" result="BackgroundImageFix"/>
<feColorMatrix in="SourceAlpha" type="matrix" values="0 0 0 0 0 0 0 0 0 0 0 0 0 0 0 0 0 0 127 0" result="hardAlpha"/>
<feOffset dy="4"/>
<feGaussianBlur stdDeviation="2"/>
<feComposite in2="hardAlpha" operator="out"/>
<feColorMatrix type="matrix" values="0 0 0 0 0 0 0 0 0 0 0 0 0 0 0 0 0 0 0.25 0"/>
<feBlend mode="normal" in2="BackgroundImageFix" result="effect1_dropShadow_50_811"/>
<feBlend mode="normal" in="SourceGraphic" in2="effect1_dropShadow_50_811" result="shape"/>
</filter>
</defs>
</svg>
