<svg width="36" height="37" viewBox="0 0 36 37" fill="none" xmlns="http://www.w3.org/2000/svg">
<path d="M8.88046 19.4169L8.9581 19.2949L13.6406 11.9697C13.7091 11.8624 13.8699 11.8735 13.9217 11.99C14.704 13.7432 15.379 15.9236 15.0628 17.281C14.9278 17.8394 14.5579 18.5958 14.1418 19.2949C14.0882 19.3966 14.029 19.4965 13.9661 19.5926C13.9365 19.637 13.8866 19.6629 13.8329 19.6629H9.0173C8.88782 19.6629 8.81202 19.5224 8.88046 19.4169Z" fill="white"/>
<path d="M29.7521 20.7779V21.9374C29.7521 22.004 29.7114 22.0632 29.6522 22.0891C29.2897 22.2444 28.0488 22.814 27.5329 23.5316C26.2161 25.3642 25.2101 27.9848 22.9613 27.9848H13.5796C10.2545 27.9848 7.56006 25.281 7.56006 21.9448V21.8376C7.56006 21.7488 7.63218 21.6767 7.72094 21.6767H12.9509C13.0544 21.6767 13.1303 21.7728 13.121 21.8746C13.084 22.2148 13.1469 22.5625 13.3078 22.8788C13.6185 23.5094 14.2621 23.9033 14.9574 23.9033H17.5465V21.882H14.987C14.8557 21.882 14.778 21.7303 14.8538 21.623C14.8816 21.5805 14.913 21.5361 14.9463 21.4862C15.1885 21.1422 15.5344 20.6078 15.8783 19.9993C16.1132 19.5888 16.3407 19.1505 16.5238 18.7104C16.5608 18.6308 16.5903 18.5495 16.6199 18.4699C16.6699 18.3294 16.7217 18.1981 16.7586 18.0668C16.7956 17.9558 16.8252 17.8393 16.8548 17.7302C16.9417 17.3566 16.9787 16.9609 16.9787 16.5503C16.9787 16.3894 16.9713 16.2212 16.9565 16.0602C16.9491 15.8846 16.9269 15.7089 16.9047 15.5332C16.8899 15.3778 16.8622 15.2244 16.8326 15.0635C16.7956 14.8286 16.7439 14.5956 16.6847 14.3607L16.6643 14.272C16.6199 14.1111 16.5829 13.9576 16.5312 13.7967C16.3851 13.2918 16.2168 12.7999 16.0393 12.3394C15.9745 12.1563 15.9005 11.9806 15.8266 11.805C15.7175 11.5405 15.6065 11.3001 15.5048 11.0726C15.453 10.969 15.4086 10.8747 15.3643 10.7786C15.3143 10.6694 15.2625 10.5604 15.2107 10.4568C15.1738 10.3772 15.1312 10.3033 15.1016 10.2293L14.7854 9.64492C14.741 9.5654 14.815 9.47108 14.9019 9.49512L16.8807 10.0314H16.8863C16.8899 10.0314 16.8918 10.0333 16.8937 10.0333L17.1544 10.1054L17.4411 10.1868L17.5465 10.2164V9.0402C17.5465 8.47244 18.0014 8.01196 18.5636 8.01196C18.8447 8.01196 19.0999 8.1266 19.283 8.3134C19.4661 8.5002 19.5807 8.7554 19.5807 9.0402V10.786L19.7915 10.8451C19.8082 10.8507 19.8248 10.8581 19.8396 10.8692C19.8914 10.908 19.9654 10.9654 20.0597 11.0356C20.1337 11.0948 20.2132 11.1669 20.3094 11.2409C20.4999 11.3944 20.7273 11.5923 20.977 11.8197C21.0435 11.8771 21.1083 11.9362 21.1675 11.9954C21.4892 12.295 21.8499 12.6464 22.1938 13.0348C22.29 13.1438 22.3843 13.2548 22.4805 13.3713C22.5767 13.4897 22.6783 13.6062 22.7671 13.7227C22.8836 13.878 23.0094 14.0389 23.1185 14.2072C23.1703 14.2868 23.2295 14.3681 23.2794 14.4476C23.4199 14.6603 23.5439 14.8804 23.6622 15.1004C23.7121 15.2022 23.7639 15.3131 23.8083 15.4222C23.9396 15.7163 24.0432 16.0159 24.1097 16.3155C24.1301 16.3802 24.1449 16.4505 24.1523 16.5134V16.5281C24.1745 16.6169 24.1819 16.7112 24.1893 16.8074C24.2189 17.1144 24.2041 17.4214 24.1375 17.7302C24.1097 17.8615 24.0727 17.9854 24.0284 18.1167C23.984 18.2425 23.9396 18.3738 23.8823 18.4977C23.7713 18.7547 23.64 19.0118 23.4847 19.2522C23.4347 19.341 23.3755 19.4353 23.3164 19.524C23.2517 19.6184 23.1851 19.7072 23.1259 19.7941C23.0445 19.905 22.9576 20.0215 22.8688 20.1251C22.7893 20.2342 22.7079 20.3433 22.6192 20.4395C22.4953 20.5856 22.3769 20.7243 22.253 20.8574C22.179 20.9444 22.0995 21.0331 22.0181 21.1126C21.9386 21.2014 21.8573 21.2809 21.7833 21.3549C21.6594 21.4788 21.5558 21.575 21.4689 21.6545L21.2655 21.8413C21.2359 21.8672 21.197 21.882 21.1563 21.882H19.5807V23.9033H21.5632C22.0071 23.9033 22.4287 23.7461 22.769 23.4576C22.8855 23.3559 23.3941 22.9157 23.9951 22.2518C24.0154 22.2296 24.0413 22.213 24.0709 22.2056L29.5468 20.6226C29.6485 20.593 29.7521 20.6706 29.7521 20.7779Z" fill="white"/>
</svg>
