<svg width="35" height="35" viewBox="0 0 35 35" fill="none" xmlns="http://www.w3.org/2000/svg">
<g filter="url(#filter0_d_50_812)">
<path d="M28.0853 10.8917C27.2901 11.2435 26.4467 11.4745 25.5832 11.5771C26.4934 11.0328 27.1746 10.1761 27.4999 9.16671C26.6457 9.67505 25.7093 10.0313 24.7332 10.224C24.0776 9.52252 23.2086 9.0573 22.2613 8.90065C21.314 8.74401 20.3415 8.90472 19.495 9.35781C18.6484 9.81089 17.9753 10.531 17.5802 11.4061C17.1852 12.2812 17.0903 13.2623 17.3103 14.1969C15.5781 14.1101 13.8836 13.66 12.3367 12.8757C10.7897 12.0915 9.42504 10.9907 8.33115 9.64484C7.94395 10.3099 7.74048 11.0659 7.74157 11.8355C7.74157 13.3459 8.51032 14.6803 9.67907 15.4615C8.98741 15.4397 8.31098 15.2529 7.70615 14.9167V14.9709C7.70636 15.9768 8.05445 16.9517 8.69141 17.7303C9.32837 18.5089 10.215 19.0432 11.2009 19.2428C10.5589 19.4168 9.88564 19.4424 9.23219 19.3178C9.51018 20.1836 10.052 20.9409 10.7818 21.4835C11.5115 22.0261 12.3927 22.3269 13.302 22.3438C12.3983 23.0535 11.3636 23.5782 10.2571 23.8877C9.15051 24.1973 7.99379 24.2857 6.85303 24.148C8.84438 25.4286 11.1625 26.1085 13.5301 26.1063C21.5437 26.1063 25.9259 19.4678 25.9259 13.7105C25.9259 13.523 25.9207 13.3334 25.9124 13.148C26.7654 12.5315 27.5016 11.7678 28.0864 10.8928L28.0853 10.8917Z" fill="white"/>
</g>
<defs>
<filter id="filter0_d_50_812" x="2.85303" y="8.84229" width="29.2334" height="25.2639" filterUnits="userSpaceOnUse" color-interpolation-filters="sRGB">
<feFlood flood-opacity="0" result="BackgroundImageFix"/>
<feColorMatrix in="SourceAlpha" type="matrix" values="0 0 0 0 0 0 0 0 0 0 0 0 0 0 0 0 0 0 127 0" result="hardAlpha"/>
<feOffset dy="4"/>
<feGaussianBlur stdDeviation="2"/>
<feComposite in2="hardAlpha" operator="out"/>
<feColorMatrix type="matrix" values="0 0 0 0 0 0 0 0 0 0 0 0 0 0 0 0 0 0 0.25 0"/>
<feBlend mode="normal" in2="BackgroundImageFix" result="effect1_dropShadow_50_812"/>
<feBlend mode="normal" in="SourceGraphic" in2="effect1_dropShadow_50_812" result="shape"/>
</filter>
</defs>
</svg>
